<?xml version="1.0" standalone="no"?><!DOCTYPE svg PUBLIC "-//W3C//DTD SVG 1.1//EN" "http://www.w3.org/Graphics/SVG/1.1/DTD/svg11.dtd"><svg t="1721922396406" class="icon" viewBox="0 0 1024 1024" version="1.1" xmlns="http://www.w3.org/2000/svg" p-id="20483" xmlns:xlink="http://www.w3.org/1999/xlink" width="200" height="200"><path d="M901 512c0 19.1-1.3 38.1-3.8 57 0.4-2.7 0.7-5.3 1.1-8-5 36.2-14.6 71.5-28.7 105.2l3-7.2c-8.6 20.3-18.7 39.9-30.3 58.7-5.8 9.3-11.9 18.4-18.4 27.2-1.6 2.1-3.1 4.2-4.7 6.3 6.7-8.8 0.6-0.9-1 1.2-3.5 4.4-7.2 8.8-10.9 13.1-14.3 16.5-30 31.8-46.6 45.9-4 3.4-8.1 6.7-12.2 9.9-4.2 3.3 6.2-4.7 1.9-1.5-1 0.8-2.1 1.6-3.1 2.4-2.5 1.8-4.9 3.6-7.4 5.4-8.9 6.4-18.1 12.4-27.5 18-17 10.2-34.8 19.2-53.1 26.9l7.2-3c-33.7 14.1-69 23.7-105.2 28.7 2.7-0.4 5.3-0.7 8-1.1-37.8 5.1-76.1 5.1-113.9 0 2.7 0.4 5.3 0.7 8 1.1-36.2-5-71.5-14.6-105.2-28.7l7.2 3c-20.3-8.6-39.9-18.7-58.7-30.3-9.3-5.8-18.4-11.9-27.2-18.4-2.1-1.6-4.2-3.1-6.3-4.7 8.8 6.7 0.9 0.6-1.2-1-4.4-3.5-8.8-7.2-13.1-10.9-16.5-14.3-31.8-30-45.9-46.6-3.4-4-6.7-8.1-9.9-12.2-3.3-4.2 4.7 6.2 1.5 1.9-0.8-1-1.6-2.1-2.4-3.1-1.8-2.5-3.6-4.9-5.4-7.4-6.4-8.9-12.4-18.1-18-27.5-10.2-17-19.2-34.8-26.9-53.1l3 7.2c-14.1-33.7-23.7-69-28.7-105.2 0.4 2.7 0.7 5.3 1.1 8-5.1-37.8-5.1-76.1 0-113.9-0.4 2.7-0.7 5.3-1.1 8 5-36.2 14.6-71.5 28.7-105.2l-3 7.2c8.6-20.3 18.7-39.9 30.3-58.7 5.8-9.3 11.9-18.4 18.4-27.2 1.6-2.1 3.1-4.2 4.7-6.3-6.7 8.8-0.6 0.9 1-1.2 3.5-4.4 7.2-8.8 10.9-13.1 14.3-16.5 30-31.8 46.6-45.9 4-3.4 8.1-6.7 12.2-9.9 4.2-3.3-6.2 4.7-1.9 1.5 1-0.8 2.1-1.6 3.1-2.4 2.5-1.8 4.9-3.6 7.4-5.4 8.9-6.4 18.1-12.4 27.5-18 17-10.2 34.8-19.2 53.1-26.9l-7.2 3c33.7-14.1 69-23.7 105.2-28.7-2.7 0.4-5.3 0.7-8 1.1 37.8-5.1 76.1-5.1 113.9 0-2.7-0.4-5.3-0.7-8-1.1 36.2 5 71.5 14.6 105.2 28.7l-7.2-3c20.3 8.6 39.9 18.7 58.7 30.3 9.3 5.8 18.4 11.9 27.2 18.4 2.1 1.6 4.2 3.1 6.3 4.7-8.8-6.7-0.9-0.6 1.2 1 4.4 3.5 8.8 7.2 13.1 10.9 16.5 14.3 31.8 30 45.9 46.6 3.4 4 6.7 8.1 9.9 12.2 3.3 4.2-4.7-6.2-1.5-1.9 0.8 1 1.6 2.1 2.4 3.1 1.8 2.5 3.6 4.9 5.4 7.4 6.4 8.9 12.4 18.1 18 27.5 10.2 17 19.2 34.8 26.9 53.1l-3-7.2c14.1 33.7 23.7 69 28.7 105.2-0.4-2.7-0.7-5.3-1.1-8 2.5 18.8 3.8 37.8 3.8 56.9 0 16.4 13.6 30 30 30 16.3 0 30-13.6 30-30-0.2-94.3-30.1-188.3-86.2-264.3C818.4 171.3 740 114.1 649.6 84.5c-90.9-29.7-192.5-28.6-282.8 2.6-89.9 31-167 89.8-222.2 167-55 76.9-83.2 172.1-81.5 266.4 1.7 94 33.5 187.4 90.8 262.1 29.4 38.4 63.7 71.4 103.4 99.1 37.9 26.5 80.6 46.7 124.8 60.2 91.4 27.9 193 25.2 282.7-7.7C754 901.5 830.2 841.7 884 763.4c50.4-73.4 76.9-162.6 77-251.4 0-16.4-13.7-30-30-30-16.4 0-30 13.6-30 30z" fill="#459df5" p-id="20484"></path><path d="M610.9 256.6c25.8 9.8 49.5 23 71.2 39.6s40.3 35.5 55.7 56.8 27.6 44.6 36.3 69.9c8.8 25.3 13.2 51.8 13.2 79.4 0 24.4-3.4 47.9-10.3 70.4-6.8 22.6-16.4 43.7-28.7 63.3-12.3 19.7-27.2 37.6-44.6 53.8-17.4 16.2-36.6 30-57.7 41.5s-43.9 20.4-68.3 26.8c-24.4 6.4-49.7 9.6-75.9 9.6-29.7 0-58.1-4-85.3-12-27.2-8-52.2-19.3-75-33.9-22.9-14.6-43.2-31.9-61-52.1-17.8-20.2-31.9-42.3-42.5-66.3 24.6 26.2 53.9 46.8 87.9 61.7s71.1 22.4 111.4 22.4c36.3 0 70.5-6.5 102.6-19.4 32-12.9 60-30.5 83.8-52.7 23.8-22.2 42.7-48.2 56.6-78.1s20.8-61.7 20.8-95.5c0-37.1-8.1-71.6-24.3-103.5s-38.2-59.1-65.9-81.7zM326.5 410.1l-51-45.9 70.3-9.8 31.1-59 31.7 59 70.3 9.8-51 45.9 12.3 65.5-63.2-31.1-62.7 31.1 12.2-65.5z" fill="#459df5" p-id="20485"></path></svg>