<?xml version="1.0" standalone="no"?><!DOCTYPE svg PUBLIC "-//W3C//DTD SVG 1.1//EN" "http://www.w3.org/Graphics/SVG/1.1/DTD/svg11.dtd"><svg t="1723564654430" class="icon" viewBox="0 0 1024 1024" version="1.1" xmlns="http://www.w3.org/2000/svg" p-id="7548" xmlns:xlink="http://www.w3.org/1999/xlink" width="200" height="200"><path d="M511.9771668 880.56828355c-1.48019378-2.96038756-1.48019378-6.66087275-2.22029066-10.36135721V387.66371146c0-5.18067896 0-10.3613572-0.7400969-15.54203616 0-0.7400969 0-1.48019378 1.48019379-1.48019379s2.96038756 0 4.44058207 0.7400969c15.54203617 4.44058207 30.34397543 8.88116342 45.88601086 12.58164861 3.70048446 0.7400969 5.18067896 2.96038756 4.44058207 6.66087272v35.52465367c0 4.44058207 1.48019378 6.66087275 5.92077513 7.40096963 9.62126031 2.22029067 19.24252062 5.18067896 28.86378165 6.66087202h0.74009688c3.70048446-1.48019378 5.92077586 0.7400969 8.88116341 2.22029139h0.7400969c6.66087275 0 0.7400969-2.96038756 2.22029066-4.44058205-0.7400969-10.3613572 0-19.98261751 0-30.34397472 0-2.22029067 0-5.18067896 2.2202914-6.66087273h1.48019378c15.54203617 4.44058207 30.34397543 8.88116342 45.88601087 13.32174475 2.96038756 0.7400969 2.96038756 2.96038756 2.96038828 5.18067897v34.78455677c0 3.70048446 0.7400969 5.92077586 4.44058135 6.66087273 8.88116342 2.22029067 18.50242372 4.44058207 27.38358714 7.40096964h0.7400969c4.44058207-1.48019378 8.14106652 2.22029067 12.58164857 1.48019379 0.7400969 0 1.48019378-0.7400969 1.48019379-1.48019379 1.48019378-5.18067896 0-10.3613572 0.74009689-15.54203615 0.7400969-6.66087275 0-13.32174548 0-19.24252062v-1.48019378c0-2.22029067 0.7400969-1.48019378 2.22029068-1.48019451 14.80193928 4.44058207 30.34397543 8.88116342 45.14591469 13.32174549 3.70048446 1.48019378 2.96038756 3.70048446 2.96038756 6.66087274 0 37.74494433 0.7400969 75.4898894 0.7400969 113.23483372 0 46.62610848 0 93.25221622 0.74009687 139.8783247 0 5.18067896-1.48019378 11.10145409-3.70048445 15.54203616-12.58164787 24.42319957-29.60387853 44.40581708-50.32659293 62.9082408-37.00484744 33.30436298-79.93047073 56.24736878-125.81648231 75.4898894-21.46281201 8.88116342-42.92562329 14.80193928-64.3884353 22.94300579-1.48019378 0.7400969-2.22029067 0.7400969-2.22029068 0.74009688h-0.74009688c-1.48019378 0.7400969-2.96038756 1.48019378-4.44058208 1.48019379" fill="#20A43A" p-id="7549"></path><path d="M509.01677924 371.38157841c1.48019378 0 2.96038756 1.48019378 2.96038756 2.96038829v507.70651062l-1.48019377-0.74009689s-29.60387853-9.62126031-44.40581708-14.80193927c-51.06668983-18.50242372-99.17299208-41.44542952-140.61842159-76.22998627-23.68310267-19.24252062-43.66572019-40.70533263-58.46765945-67.34882287-4.44058207-7.40096964-6.66087275-16.28213306-6.66087274-24.42319957 0.7400969-82.89085901 0.7400969-165.78171805 0.74009762-248.67257635 0-5.18067896 1.48019378-6.66087275 5.92077513-8.14106653 14.80193928-3.70048446 28.86378092-8.14106652 43.66572017-12.58164858 2.22029067 2.22029067 1.48019378 5.18067896 1.48019451 7.40096961v24.42319958c0 5.92077586 0.7400969 6.66087275 6.66087202 5.18067896 2.22029067-0.7400969 4.44058207-0.7400969 6.66087274 0 9.62126031-2.22029067 19.24252062-5.18067896 29.60387854-7.40096962 3.70048446-0.7400969 3.70048446-2.96038756 3.70048446-5.92077586v-35.52465367c0-2.22029067 0-4.44058207 2.96038756-5.18067896l46.62610847-13.32174476c2.22029067 2.22029067 1.48019378 5.18067896 1.48019378 8.14106653 0 10.3613572-0.7400969 20.72271439 0.7400969 31.82416848 3.70048446 2.96038756 6.66087275-0.7400969 10.36135792-0.74009689 1.48019378-0.7400969 2.96038756 0 5.18067824 0 8.88116342-2.22029067 17.76232683-5.18067896 26.64349023-7.40096963 4.44058207-0.7400969 5.92077586-2.96038756 5.92077586-7.40096963-0.7400969-11.84155098 0-23.68310267 0-36.26475056 0-2.22029067 0-4.44058207 2.96038757-5.18067823 15.54203617-2.22029067 31.82416921-6.66087275 47.36620535-10.36135793z" fill="#18842D" p-id="7550"></path><path d="M511.9771668 256.6665509c7.40096964 0.7400969 12.58164787 3.70048446 13.3217455 11.84155098 0.7400969 6.66087275 1.48019378 15.54203617 5.92077584 19.98261751 4.44058207 4.44058207 13.32174548 4.44058207 19.98261752 6.66087274 83.63095592 23.68310267 167.26191183 47.36620537 250.89286773 70.30921115 4.44058207 1.48019378 7.40096964 1.48019378 11.10145409-2.2202914l0.74009689-0.74009689c11.84155098-11.84155098 25.16329646-15.54203617 41.44542952-8.8811634 0.7400969 1.48019378-1.48019378 2.22029067-2.22029067 3.70048517-13.32174548 17.76232683-26.64349025 34.78455677-39.96523574 52.54688361-2.22029067 3.70048446-4.44058207 4.44058207-8.88116341 2.96038756-95.47250689-28.12368403-191.6851114-55.50727189-287.15761829-82.89085904-2.96038756-0.7400969-5.92077586-1.48019378-9.62126031-0.74009688 2.22029067-7.40096964 1.48019378-15.54203617 1.48019377-22.94300507v-39.96523573c0.7400969-4.44058207 0.7400969-7.40096964 2.96038756-9.62126031z" fill="#20A43A" p-id="7551"></path><path d="M511.9771668 256.6665509v64.38843458c0 3.70048446 0 5.92077586-3.70048445 7.40096963-26.64349025 7.40096964-52.5468836 15.54203617-78.45027695 22.9430058-70.30921043 19.98261751-140.61842159 40.70533263-210.18753513 60.68795012-2.22029067 0.7400969-5.18067896 2.22029067-7.40096963-0.74009689-14.80193928-19.24252062-29.60387853-38.48504196-45.1459147-58.46765945l22.9430058-2.96038757c1.48019378 0 2.22029067 0 3.70048517 0.7400969s2.22029067 1.48019378 2.96038757 2.22029067c11.84155098 12.58164787 25.16329646 12.58164787 41.44542952 8.14106652 82.89085901-24.42319957 166.52181494-47.36620537 249.41267324-70.30921043 3.70048446-1.48019378 6.66087275-2.96038756 7.40096963-7.40096963 0.7400969-5.18067896 2.96038756-10.3613572 3.70048518-15.54203617 0.7400969-8.14106652 5.92077586-11.10145409 13.32174475-11.10145408z" fill="#18842D" p-id="7552"></path><path d="M511.9771668 142.69161957c11.84155098-0.7400969 11.84155098-0.7400969 14.06184238 10.36135719 2.96038756 14.06184237 5.18067896 28.86378092 8.14106653 42.92562329 0 2.96038756 2.22029067 5.18067896 5.18067896 5.92077586 77.71018006 23.68310267 155.42036013 46.62610848 233.1305402 70.30921116 2.22029067 0.7400969 5.18067896 0.7400969 6.66087274-1.48019452l0.74009688-0.74009689c12.58164787-11.10145409 26.64349025-17.02222994 43.66572019-8.88116341 0 1.48019378-2.22029067 2.22029067-2.96038756 2.96038828-14.80193928 14.80193928-30.34397543 28.86378092-44.40581708 43.66572019-3.70048446 3.70048446-6.66087275 4.44058207-11.84155171 2.96038757-82.15076214-22.94300579-165.04162116-45.88601086-247.19238256-68.82901665-2.22029067-0.7400969-4.44058207-0.7400969-5.92077585-1.48019378-0.7400969-2.22029067-1.48019378-4.44058207-0.74009689-5.92077586V152.31287987c-0.7400969-2.96038756-1.48019378-6.66087275 1.48019377-9.6212603z" fill="#20A43A" p-id="7553"></path><path d="M511.9771668 142.69161957v91.03192554c0 2.22029067 0 5.18067896-1.48019377 7.40096964-40.70533263 11.10145409-80.67056836 22.94300579-121.37590025 34.04445987-42.92562329 11.84155098-85.85124659 23.68310267-128.77687061 36.26475055-5.92077586 1.48019378-8.88116342 0.7400969-13.32174477-3.70048445-14.80193928-16.28213306-30.34397543-32.5642661-44.40581707-48.10630225 4.44058207-0.7400969 11.84155098-1.48019378 19.24252061-2.96038756 2.96038756-0.7400969 5.18067896 1.48019378 6.66087275 2.96038756 12.58164787 12.58164787 25.16329646 11.84155098 41.44542951 6.66087274 70.30921043-22.20290889 142.09861537-42.92562329 212.4078258-64.3884353 4.44058207-1.48019378 6.66087275-3.70048446 7.40096963-8.14106652 2.22029067-14.80193928 5.92077586-28.86378092 8.14106653-43.66572019 0.7400969-6.66087275 2.96038756-9.62126031 10.36135719-8.14106652 1.48019378 0.7400969 2.22029067 0.7400969 3.70048445 0.74009689z" fill="#18842D" p-id="7554"></path><path d="M326.21283126 467.59418292c-3.70048446 1.48019378-8.14106652 2.96038756-12.58164788 3.70048445-3.70048446 0.7400969-2.96038756-2.96038756-2.96038829-4.44058134v-36.26475128h0.74009763c14.80193928 2.22029067 14.80193928 2.22029067 14.80193854 17.02222995-0.7400969 5.92077586 0 12.58164787 0 19.98261822z" fill="#20A43A" p-id="7555"></path><path d="M712.54344163 429.84923786v2.2202914c0.7400969 13.32174548 0.7400969 25.90339336 0 39.22513811-5.18067896-0.7400969-10.3613572-2.96038756-15.54203615-3.70048445v-28.12368475c0-4.44058207 1.48019378-6.66087275 5.92077585-7.40096891 3.70048446-0.7400969 6.66087275-2.96038756 9.6212603-2.2202914z m-103.61357341 12.58164859l-8.88116342-2.22029139v-31.08407159c0-4.44058207 1.48019378-6.66087275 5.92077512-6.66087275 2.96038756 0 5.92077586-2.22029067 9.62126103-1.48019377-2.22029067 5.18067896-0.7400969 11.10145409-1.48019449 16.28213304v22.94300507c0.7400969 2.96038756 0.7400969 3.70048446-5.18067824 2.22029139z" fill="#18852D" p-id="7556"></path><path d="M420.94524199 440.95069268c1.48019378 0 3.70048446-0.7400969 5.18067824-0.74009762-3.70048446 0-2.22029067-2.96038756-2.22029067-4.44058134v-27.38358714c0-2.22029067 0.7400969-4.44058207-2.22029068-4.44058207-4.44058207-0.7400969-8.14106652-2.96038756-12.58164861-2.22029069v37.00484746c0 0.7400969 0 5.92077586 1.48019379 6.66087274h2.2202914c0.7400969 0 1.48019378 0 2.22029067-0.74009689" fill="#20A53A" p-id="7557"></path><path d="M712.54344163 471.29466737v-39.22513811c2.22029067 1.48019378 1.48019378 4.44058207 1.48019378 6.66087202 0.7400969 10.3613572-0.7400969 21.46281201 0.7400969 31.8241692 0 0.7400969-0.7400969 0.7400969-0.7400969 1.48019379 0 0-0.7400969-0.7400969-1.48019378-0.7400969z" fill="#24A53E" p-id="7558"></path></svg>