<?xml version="1.0" standalone="no"?><!DOCTYPE svg PUBLIC "-//W3C//DTD SVG 1.1//EN" "http://www.w3.org/Graphics/SVG/1.1/DTD/svg11.dtd"><svg t="1723477521362" class="icon" viewBox="0 0 1024 1024" version="1.1" xmlns="http://www.w3.org/2000/svg" p-id="8077" xmlns:xlink="http://www.w3.org/1999/xlink" width="200" height="200"><path d="M484 64h56c4.42 0 8 3.58 8 8v248c0 4.42-3.58 8-8 8h-56c-4.42 0-8-3.58-8-8V72c0-4.42 3.58-8 8-8z m0 632h56c4.42 0 8 3.58 8 8v248c0 4.42-3.58 8-8 8h-56c-4.42 0-8-3.58-8-8V704c0-4.42 3.58-8 8-8z m324.98-520.58l39.6 39.6c3.12 3.12 3.12 8.19 0 11.31L673.22 401.69c-3.12 3.12-8.19 3.12-11.31 0l-39.6-39.6c-3.12-3.12-3.12-8.19 0-11.31l175.36-175.36c3.13-3.13 8.19-3.13 11.31 0zM362.09 622.31l39.6 39.6c3.12 3.12 3.12 8.19 0 11.31L226.33 848.58c-3.12 3.12-8.19 3.12-11.31 0l-39.6-39.6c-3.12-3.12-3.12-8.19 0-11.31l175.36-175.36a7.985 7.985 0 0 1 11.31 0zM960 484v56c0 4.42-3.58 8-8 8H704c-4.42 0-8-3.58-8-8v-56c0-4.42 3.58-8 8-8h248c4.42 0 8 3.58 8 8z m-632 0v56c0 4.42-3.58 8-8 8H72c-4.42 0-8-3.58-8-8v-56c0-4.42 3.58-8 8-8h248c4.42 0 8 3.58 8 8z m520.58 324.98l-39.6 39.6c-3.12 3.12-8.19 3.12-11.31 0L622.31 673.22c-3.12-3.12-3.12-8.19 0-11.31l39.6-39.6c3.12-3.12 8.19-3.12 11.31 0l175.36 175.36c3.13 3.13 3.13 8.19 0 11.31zM401.69 362.09l-39.6 39.6c-3.12 3.12-8.19 3.12-11.31 0L175.42 226.33c-3.12-3.12-3.12-8.19 0-11.31l39.6-39.6c3.12-3.12 8.19-3.12 11.31 0l175.36 175.36a7.985 7.985 0 0 1 0 11.31z" p-id="8078"></path></svg>